<?xml version="1.0" encoding="iso-8859-1"?>
<!-- Generator: Adobe Illustrator 19.0.1, SVG Export Plug-In . SVG Version: 6.00 Build 0)  -->
<svg version="1.1" xmlns="http://www.w3.org/2000/svg" xmlns:xlink="http://www.w3.org/1999/xlink" x="0px" y="0px"
	 viewBox="0 0 128 128" style="enable-background:new 0 0 128 128;" xml:space="preserve">
<g id="_x31_3">
	<path style="fill:#303030;" d="M64,0.046c-35.275,0-64,28.666-64,63.908s28.725,63.908,64,63.908c35.293,0,64-28.666,64-63.908
		S99.293,0.046,64,0.046z M120.491,60.27H71.38l34.444-34.395C114.237,35.086,119.642,47.061,120.491,60.27z M64,120.494
		c-31.216,0-56.62-25.368-56.62-56.539C7.38,32.783,32.784,7.415,64,7.415c13.892,0,26.641,5.029,36.492,13.356L53.558,67.639
		h66.933C118.591,97.097,93.998,120.494,64,120.494z"/>
</g>
<g id="Layer_1">
</g>
</svg>
