<svg id="Сгруппировать_1691" data-name="Сгруппировать 1691" xmlns="http://www.w3.org/2000/svg" width="82.634" height="38" viewBox="0 0 82.634 38">
  <path id="Контур_76" data-name="Контур 76" d="M188.26,353.429c2.347.625,4.738,1.127,6.769,2.561a13.284,13.284,0,0,1,5.642,9.424,70.718,70.718,0,0,1,.257,8.892c.015,1.081-.467,1.593-1.6,1.59q-7.247-.021-14.494,0c-1.209,0-1.688-.543-1.652-1.68s.034-2.284,0-3.425c-.032-1.086.407-1.577,1.579-1.547,2.109.054,4.222-.025,6.332.028,1.1.027,1.385-.392,1.23-1.4-.222-1.447-.312-2.91-1.3-4.129-2.544-3.144-8.955-2.99-11.306.291a8.137,8.137,0,0,0-1.569,4.755c-.023,2.831-.046,5.664.014,8.495.078,3.684,2.246,5.867,6.068,5.989,3.467.111,6.941.032,10.412.052,1.8.01,2.021.231,2.035,1.982.012,1.553.009,3.106-.024,4.658-.014.667-.16,1.351-1.055,1.336-5.059-.086-10.154.5-15.17-.287-6.473-1.012-10.268-5.3-10.843-11.695-.369-4.105-.143-8.215-.157-12.322a9.7,9.7,0,0,1,1.129-4.352c.38-.761.112-.974-.662-.971-3.283.015-6.567-.023-9.85.029-1.745.027-2.428.816-2.431,2.659q-.016,12.4-.007,24.8c0,2.16,0,2.171-2.156,2.163-2.11-.009-4.22-.042-6.33-.065V361.379a22.593,22.593,0,0,1,1.764-3.837c1.615-2.346,4-3.437,6.682-4.113Z" transform="translate(-149.125 -353.429)" fill="#e87511"/>
  <path id="Контур_77" data-name="Контур 77" d="M372.047,353.429c.592,2.435.255,4.9.213,7.352-.016.952-.948.852-1.637.854-3.94.012-7.88,0-11.819.012a14.136,14.136,0,0,0-2.1.1,3.459,3.459,0,0,0-3.195,3.427,3.562,3.562,0,0,0,2.99,3.891c2.365.45,4.77.146,7.157.2a10.68,10.68,0,0,1,10.447,8.19c1.579,6.673-3.845,13.586-11.009,13.827-4.732.159-9.473.028-14.21.058-1.026.006-1.437-.4-1.414-1.39.036-1.6,0-3.2.009-4.795.01-1.656.156-1.816,1.839-1.823,4.362-.018,8.724.024,13.086-.033a3.65,3.65,0,0,0,3.676-4.674,3.606,3.606,0,0,0-3.613-2.7c-2.293-.109-4.586,0-6.885-.184-8.493-.694-13.008-9.194-8.67-16.353a13.259,13.259,0,0,1,8.247-5.953Z" transform="translate(-291.739 -353.429)" fill="#e87511"/>
</svg>
