<svg xmlns="http://www.w3.org/2000/svg" viewBox="0 0 25 25"><defs><style>.cls-1{fill:#231f20;}</style></defs><g id="graph-line"><path class="cls-1" d="M23.5,23H2V1.5a.5.5,0,0,0-1,0v22a.5.5,0,0,0,.5.5h22a.5.5,0,0,0,0-1Z"/><path class="cls-1" d="M4.5,15A1.5,1.5,0,0,0,6,13.5a1.48,1.48,0,0,0-.79-1.31L7.32,8,7.5,8h.13l4.17,9.19A1.5,1.5,0,1,0,14,18.5a1.48,1.48,0,0,0-.79-1.31L15.32,13l.18,0A1.5,1.5,0,0,0,17,11.53l4.15-1.39A1.5,1.5,0,1,0,22.5,8a1.5,1.5,0,0,0-1.45,1.12l-4.37,1.46a1.5,1.5,0,1,0-2.26,2l-1.9,3.8-4-8.76A1.53,1.53,0,0,0,9,6.5a1.5,1.5,0,1,0-2.58,1L4.17,12a1.5,1.5,0,0,0,.33,3Zm8,4a.5.5,0,1,1,.5-.5A.5.5,0,0,1,12.5,19Zm10-10a.5.5,0,1,1-.5.5A.5.5,0,0,1,22.5,9Zm-7,2a.5.5,0,1,1-.5.5A.5.5,0,0,1,15.5,11Zm-8-5a.5.5,0,1,1-.5.5A.5.5,0,0,1,7.5,6Zm-3,7a.5.5,0,1,1-.5.5A.5.5,0,0,1,4.5,13Z"/></g></svg>